# xmcd
#
# Track frame offsets: 
#        150
#        14160
#        30241
#        50958
#        62191
#        75426
#        94620
#        115961
#        139940
#        164625
#        183386
#        205949
#        222965
#
# Disc length: 3196 seconds
#
# Revision: 0
# Processed by: cddbd v1.5.2PL0 Copyright (c) Steve Scherf et al.
# Submitted via: ExactAudioCopy v1.3
#
DISCID=bd0c7a0d
DTITLE=Cherry and The Lowboys - Naked In Outer Space
DYEAR=2016
DGENRE=Blues Rock
TTITLE0=Big Block Lover
TTITLE1=Naked in Outer Space
TTITLE2=Company Car
TTITLE3=Attack of the Boogie Monster
TTITLE4=Voodoo Coupe
TTITLE5=Dig It
TTITLE6=Leave Me Cold
TTITLE7=Mexican Sky
TTITLE8=Dirty Boy
TTITLE9=Caveman
TTITLE10=Spacewalk
TTITLE11=Deluxe
TTITLE12=Psycho-Sonic
EXTD=
EXTT0=
EXTT1=
EXTT2=
EXTT3=
EXTT4=
EXTT5=
EXTT6=
EXTT7=
EXTT8=
EXTT9=
EXTT10=
EXTT11=
EXTT12=
PLAYORDER=
